<?xml version="1.0" encoding="UTF-8"?>
<svg width="302px" height="152px" viewBox="0 0 302 152" version="1.1" xmlns="http://www.w3.org/2000/svg" xmlns:xlink="http://www.w3.org/1999/xlink">
    <style>
        @import url('https://fonts.googleapis.com/css?family=Source+Sans+Pro:900');
    </style>
    <title>mascot 2024</title>
    <g id="Page-1" stroke="none" stroke-width="1" fill="none" fill-rule="evenodd">
        <g id="mascot" transform="translate(-1.000000, -1.000000)">
            <g id="background">
                <rect id="canvas_background" x="0" y="0" width="582" height="402"></rect>
            </g>
            <g id="Layer-1" transform="translate(1.000000, 1.000000)" fill-rule="nonzero">
                <g id="submarine">
                    <rect id="Rectangle" fill="#F8C86C" x="0" y="28" width="302" height="100" rx="50"></rect>
                    <path d="M58.68,95.72 C56.19999,95.72 53.65001,95.27 51.03,94.37 C48.40999,93.47 46.04001,92.06001 43.92,90.14 L49.8,83.06 C51.20001,84.18001 52.70999,85.09 54.33,85.79 C55.95001,86.49 57.47999,86.84 58.92,86.84 C60.48001,86.84 61.61,86.6 62.31,86.12 C63.01,85.64 63.36,84.96 63.36,84.08 C63.36,83.6 63.24,83.2 63,82.88 C62.76,82.56 62.41,82.26 61.95,81.98 C61.49,81.7 60.94,81.43 60.3,81.17 C59.66,80.91 58.92,80.62 58.08,80.3 L53.22,78.26 C52.17999,77.86 51.18,77.33 50.22,76.67 C49.26,76.01 48.42,75.23 47.7,74.33 C46.98,73.43 46.41,72.40001 45.99,71.24 C45.57,70.07999 45.36,68.80001 45.36,67.4 C45.36,65.71999 45.72,64.15001 46.44,62.69 C47.16,61.22999 48.15999,59.95001 49.44,58.85 C50.72001,57.74999 52.24999,56.88 54.03,56.24 C55.81001,55.6 57.75999,55.28 59.88,55.28 C62.12001,55.28 64.38999,55.7 66.69,56.54 C68.99001,57.38 71.03999,58.69999 72.84,60.5 L67.68,66.98 C66.35999,66.06 65.09001,65.36 63.87,64.88 C62.64999,64.4 61.32001,64.16 59.88,64.16 C58.59999,64.16 57.6,64.38 56.88,64.82 C56.16,65.26 55.8,65.92 55.8,66.8 C55.8,67.72 56.30999,68.43 57.33,68.93 C58.35001,69.43 59.75999,70.02 61.56,70.7 L66.3,72.56 C68.74001,73.52 70.61999,74.85999 71.94,76.58 C73.26001,78.30001 73.92,80.51999 73.92,83.24 C73.92,84.88001 73.58,86.45999 72.9,87.98 C72.22,89.50001 71.23001,90.82999 69.93,91.97 C68.62999,93.11001 67.04001,94.02 65.16,94.7 C63.27999,95.38 61.12001,95.72 58.68,95.72 L58.68,95.72 Z M100.24,76.04 L99.58,78.74 L106.78,78.74 L106.12,76.04 C105.64,74.15999 105.16,72.12001 104.68,69.92 C104.2,67.71999 103.72,65.64001 103.24,63.68 L103,63.68 C102.56,65.68 102.11,67.76999 101.65,69.95 C101.19,72.13001 100.72,74.15999 100.24,76.04 L100.24,76.04 Z M85.24,95 L97.12,56 L109.6,56 L121.48,95 L110.56,95 L108.64,86.72 L97.72,86.72 L95.8,95 L85.24,95 L85.24,95 Z M150.56,95.72 C145.07997,95.72 141.01001,94.13002 138.35,90.95 C135.68999,87.76998 134.36,82.84003 134.36,76.16 L134.36,56 L144.68,56 L144.68,77.36 C144.68,80.84002 145.14999,83.28999 146.09,84.71 C147.03,86.13001 148.51999,86.84 150.56,86.84 C152.60001,86.84 154.10999,86.13001 155.09,84.71 C156.07001,83.28999 156.56,80.84002 156.56,77.36 L156.56,56 L166.52,56 L166.52,76.16 C166.52,82.84003 165.22001,87.76998 162.62,90.95 C160.01999,94.13002 156.00003,95.72 150.56,95.72 L150.56,95.72 Z M190.92,95 L179.4,56 L190.32,56 L194.4,73.04 C194.96,75.12001 195.44,77.16999 195.84,79.19 C196.24,81.21001 196.72,83.27999 197.28,85.4 L197.52,85.4 C198.08,83.27999 198.57,81.21001 198.99,79.19 C199.41,77.16999 199.88,75.12001 200.4,73.04 L204.36,56 L214.92,56 L203.4,95 L190.92,95 Z M244.96,95.72 C242.47999,95.72 240.11001,95.31 237.85,94.49 C235.58999,93.67 233.61001,92.43001 231.91,90.77 C230.20999,89.10999 228.86,87.03001 227.86,84.53 C226.85999,82.02999 226.36,79.12002 226.36,75.8 C226.36,72.51998 226.88,69.61001 227.92,67.07 C228.96,64.52999 230.34999,62.39001 232.09,60.65 C233.83001,58.90999 235.82999,57.58 238.09,56.66 C240.35001,55.74 242.71999,55.28 245.2,55.28 C247.80001,55.28 250.11999,55.78999 252.16,56.81 C254.20001,57.83001 255.91999,59.03999 257.32,60.44 L251.92,67.04 C250.95999,66.2 249.97,65.51 248.95,64.97 C247.92999,64.43 246.76001,64.16 245.44,64.16 C244.27999,64.16 243.19001,64.42 242.17,64.94 C241.14999,65.46 240.25,66.2 239.47,67.16 C238.69,68.12 238.07,69.29999 237.61,70.7 C237.15,72.10001 236.92,73.67999 236.92,75.44 C236.92,79.12002 237.68999,81.93999 239.23,83.9 C240.77001,85.86001 242.79999,86.84 245.32,86.84 C246.84001,86.84 248.18999,86.51 249.37,85.85 C250.55001,85.19 251.56,84.4 252.4,83.48 L257.8,89.96 C256.11999,91.88001 254.19001,93.32 252.01,94.28 C249.82999,95.24 247.48001,95.72 244.96,95.72 Z" id="SAUVC-text" fill="#1C455D"></path>
                    <path d="M302,77.979 C302,64.508 296.663,52.291 288,43.3 L288,112.658 C296.663,103.667 302,91.45 302,77.979" id="Fill-1" fill="#F59A63"></path>
                    <path d="M0,77.979 C0,64.508 5.337,52.291 14,43.3 L14,112.658 C5.337,103.667 0,91.45 0,77.979" id="Fill-1-Copy" fill="#F59A63"></path>
                    <path d="M111,0 L191,0 L191,0 C196.52285,0 201,4.47715 201,10 L201,28 L101,28 L101,10 L101,10 C101,4.47715 105.47715,0 111,0 Z" id="Rectangle-2" fill="#F59A63"></path>
                    <rect id="Rectangle-4" fill="#1C455D" x="268" y="112" width="20" height="40"></rect>
                    <path d="M194,112 L244.34676,112 L244.34676,112 C251.23812,112 257.91937,114.37256 263.26732,118.71884 L279.60938,132 L263.26732,145.28116 L263.26732,145.28116 C257.91937,149.62743 251.23812,152 244.34676,152 L194,152 L194,152 C182.95431,152 174,143.04569 174,132 L174,132 L174,132 C174,120.95431 182.95431,112 194,112 L194,112 Z" id="Rectangle-3" fill="#1C455D"></path>
                </g>
                <g id="year-text" transform="translate(194.533330, 123.200000)" fill="#FFFFFF">
                    <text font-family="Source Sans Pro, sans-serif" font-weight="bold" font-size="1.8em" y="18" x="-4">2024</text>
                </g>
            </g>
        </g>
    </g>
</svg>