<svg width="302" height="152" xmlns="http://www.w3.org/2000/svg">
 <!-- Generator: Sketch 47.1 (45422) - http://www.bohemiancoding.com/sketch -->
 <title>logo-sauvc</title>
 <desc>Created with Sketch.</desc>

 <g>
  <title>background</title>
  <rect fill="none" id="canvas_background" height="402" width="582" y="-1" x="-1"/>
 </g>
 <g>
  <title>Layer 1</title>
  <g fill-rule="evenodd" fill="none" id="Page-1">
   <g id="logo-sauvc">
    <rect rx="50" height="100" width="302" y="28" fill="#F8C86C" id="Rectangle"/>
    <path fill="#1C455D" id="SAUVC" d="m58.68,95.72c-2.48001,0 -5.02999,-0.45 -7.65,-1.35c-2.62001,-0.9 -4.98999,-2.30999 -7.11,-4.23l5.88,-7.08c1.40001,1.12001 2.90999,2.03 4.53,2.73c1.62001,0.7 3.14999,1.05 4.59,1.05c1.56001,0 2.69,-0.24 3.39,-0.72c0.7,-0.48 1.05,-1.16 1.05,-2.04c0,-0.48 -0.12,-0.88 -0.36,-1.2c-0.24,-0.32 -0.59,-0.62 -1.05,-0.9c-0.46,-0.28 -1.01,-0.55 -1.65,-0.81c-0.64,-0.26 -1.38,-0.55 -2.22,-0.87l-4.86,-2.04c-1.04001,-0.4 -2.04,-0.93 -3,-1.59c-0.96,-0.66 -1.8,-1.44 -2.52,-2.34c-0.72,-0.9 -1.29,-1.92999 -1.71,-3.09c-0.42,-1.16001 -0.63,-2.43999 -0.63,-3.84c0,-1.68001 0.36,-3.24999 1.08,-4.71c0.72,-1.46001 1.71999,-2.73999 3,-3.84c1.28001,-1.10001 2.80999,-1.97 4.59,-2.61c1.78001,-0.64 3.72999,-0.96 5.85,-0.96c2.24001,0 4.50999,0.42 6.81,1.26c2.30001,0.84 4.34999,2.15999 6.15,3.96l-5.16,6.48c-1.32001,-0.92 -2.58999,-1.62 -3.81,-2.1c-1.22001,-0.48 -2.54999,-0.72 -3.99,-0.72c-1.28001,0 -2.28,0.22 -3,0.66c-0.72,0.44 -1.08,1.1 -1.08,1.98c0,0.92 0.50999,1.63 1.53,2.13c1.02001,0.5 2.42999,1.09 4.23,1.77l4.74,1.86c2.44001,0.96 4.31999,2.29999 5.64,4.02c1.32001,1.72001 1.98,3.93999 1.98,6.66c0,1.64001 -0.34,3.21999 -1.02,4.74c-0.68,1.52001 -1.66999,2.84999 -2.97,3.99c-1.30001,1.14001 -2.88999,2.05 -4.77,2.73c-1.88001,0.68 -4.03999,1.02 -6.48,1.02zm41.56,-19.68l-0.66,2.7l7.2,0l-0.66,-2.7c-0.48,-1.88001 -0.96,-3.91999 -1.44,-6.12c-0.48,-2.20001 -0.96,-4.27999 -1.44,-6.24l-0.24,0c-0.44,2.00001 -0.89,4.08999 -1.35,6.27c-0.46,2.18001 -0.93,4.20999 -1.41,6.09zm-15,18.96l11.88,-39l12.48,0l11.88,39l-10.92,0l-1.92,-8.28l-10.92,0l-1.92,8.28l-10.56,0zm65.32,0.72c-5.48003,0 -9.54999,-1.58998 -12.21,-4.77c-2.66001,-3.18002 -3.99,-8.10997 -3.99,-14.79l0,-20.16l10.32,0l0,21.36c0,3.48002 0.46999,5.92999 1.41,7.35c0.94,1.42001 2.42999,2.13 4.47,2.13c2.04001,0 3.54999,-0.70999 4.53,-2.13c0.98001,-1.42001 1.47,-3.86998 1.47,-7.35l0,-21.36l9.96,0l0,20.16c0,6.68003 -1.29999,11.60998 -3.9,14.79c-2.60001,3.18002 -6.61997,4.77 -12.06,4.77zm40.36,-0.72l-11.52,-39l10.92,0l4.08,17.04c0.56,2.08001 1.04,4.12999 1.44,6.15c0.4,2.02001 0.88,4.08999 1.44,6.21l0.24,0c0.56,-2.12001 1.05,-4.18999 1.47,-6.21c0.42,-2.02001 0.89,-4.06999 1.41,-6.15l3.96,-17.04l10.56,0l-11.52,39l-12.48,0zm54.04,0.72c-2.48001,0 -4.84999,-0.41 -7.11,-1.23c-2.26001,-0.82 -4.23999,-2.05999 -5.94,-3.72c-1.70001,-1.66001 -3.04999,-3.73999 -4.05,-6.24c-1.00001,-2.50001 -1.5,-5.40998 -1.5,-8.73c0,-3.28002 0.52,-6.18999 1.56,-8.73c1.04,-2.54001 2.42999,-4.67999 4.17,-6.42c1.74001,-1.74001 3.73999,-3.07 6,-3.99c2.26001,-0.92 4.62999,-1.38 7.11,-1.38c2.60001,0 4.91999,0.50999 6.96,1.53c2.04001,1.02001 3.75999,2.22999 5.16,3.63l-5.4,6.6c-0.96001,-0.84 -1.95,-1.53 -2.97,-2.07c-1.02001,-0.54 -2.18999,-0.81 -3.51,-0.81c-1.16001,0 -2.24999,0.26 -3.27,0.78c-1.02001,0.52 -1.92,1.26 -2.7,2.22c-0.78,0.96 -1.4,2.13999 -1.86,3.54c-0.46,1.40001 -0.69,2.97999 -0.69,4.74c0,3.68002 0.76999,6.49999 2.31,8.46c1.54001,1.96001 3.56999,2.94 6.09,2.94c1.52001,0 2.86999,-0.33 4.05,-0.99c1.18001,-0.66 2.19,-1.45 3.03,-2.37l5.4,6.48c-1.68001,1.92001 -3.60999,3.36 -5.79,4.32c-2.18001,0.96 -4.52999,1.44 -7.05,1.44z"/>
    <path fill="#F59A63" id="Fill-1" d="m302,77.979c0,-13.471 -5.337,-25.688 -14,-34.679l0,69.358c8.663,-8.991 14,-21.208 14,-34.679"/>
    <path fill="#F59A63" id="Fill-1-Copy" d="m0,77.979c0,-13.471 5.337,-25.688 14,-34.679l0,69.358c-8.663,-8.991 -14,-21.208 -14,-34.679"/>
    <path fill="#F59A63" id="Rectangle-2" d="m111,0l80,0l0,0c5.52285,0 10,4.47715 10,10l0,18l-100,0l0,-18l0,0c0,-5.52285 4.47715,-10 10,-10z"/>
    <rect height="40" width="20" y="112" x="268" fill="#1C455D" id="Rectangle-4"/>
    <path fill="#1C455D" id="Rectangle-3" d="m194,112l50.34676,0l0,0c6.89136,0 13.57261,2.37256 18.92056,6.71884l16.34206,13.28116l-16.34206,13.28116l0,0c-5.34795,4.34627 -12.0292,6.71884 -18.92056,6.71884l-50.34676,0l0,0c-11.04569,0 -20,-8.95431 -20,-20l0,0l0,0c0,-11.04569 8.95431,-20 20,-20z"/>
   </g>
  </g>
  <g id="textToPathGroup">
   <path fill="white" d="m194.73332,140l0,-2.5c1,-0.89999 1.90001,-1.8 2.80001,-2.60001c0.8,-0.79998 1.5,-1.5 2.1,-2.19999c0.7,-0.7 1.2,-1.4 1.5,-2c0.4,-0.7 0.59999,-1.30001 0.59999,-1.80001c0,-0.79998 -0.19999,-1.29998 -0.59999,-1.69999c-0.40001,-0.30001 -0.90001,-0.5 -1.5,-0.5c-0.5,0 -1,0.1 -1.40001,0.5c-0.5,0.3 -0.89999,0.6 -1.29998,1l-2.40001,-2.3c0.5,-0.5 0.90001,-0.9 1.3,-1.2c0.39999,-0.4 0.89999,-0.6 1.3,-0.9c0.5,-0.2 1,-0.3 1.5,-0.4c0.5,-0.1 1,-0.2 1.59999,-0.2c0.90001,0 1.60001,0.1 2.30001,0.4c0.69999,0.3 1.3,0.6 1.8,1.1c0.5,0.5 0.89999,1 1.2,1.69999c0.3,0.70002 0.40001,1.40001 0.40001,2.20002c0,0.69999 -0.10001,1.29998 -0.40001,2c-0.30001,0.69999 -0.7,1.39999 -1.09999,2.09999c-0.5,0.6 -1,1.3 -1.5,1.90001c-0.60001,0.69999 -1.20002,1.29998 -1.70002,1.89999c0.40001,-0.10001 0.90001,-0.10001 1.40001,-0.2c0.5,0 1,0 1.30001,0l2.79998,0l0,3.7l-12,0zm20.20002,0.3c-1,0 -1.80001,-0.19999 -2.5,-0.5c-0.80001,-0.40001 -1.40001,-1 -2,-1.69999c-0.5,-0.70002 -0.90001,-1.60001 -1.20002,-2.70002c-0.29998,-1.09999 -0.5,-2.29998 -0.5,-3.69999c0,-1.4 0.20002,-2.7 0.5,-3.7c0.30001,-1.10001 0.70002,-2 1.20002,-2.7c0.59999,-0.7 1.19999,-1.2 2,-1.6c0.69999,-0.3 1.5,-0.5 2.5,-0.5c0.89999,0 1.69999,0.2 2.39999,0.5c0.8,0.4 1.39999,0.9 2,1.6c0.5,0.7 1,1.59999 1.3,2.7c0.2,1 0.4,2.3 0.4,3.7c0,1.40001 -0.2,2.6 -0.4,3.69999c-0.3,1.10001 -0.8,2 -1.3,2.70002c-0.60001,0.69999 -1.2,1.29998 -2,1.69999c-0.7,0.30001 -1.5,0.5 -2.39999,0.5zm0,-3.40001c0.19999,0 0.5,-0.09999 0.69999,-0.19999c0.2,-0.09999 0.4,-0.4 0.59999,-0.80001c0.20002,-0.39999 0.30001,-0.89999 0.40001,-1.59999c0.09999,-0.6 0.2,-1.5 0.2,-2.6c0,-1.09999 -0.10001,-2 -0.2,-2.59999c-0.1,-0.70002 -0.19999,-1.20002 -0.40001,-1.60001c-0.19999,-0.3 -0.39999,-0.60001 -0.59999,-0.7c-0.19999,-0.1 -0.5,-0.19999 -0.69999,-0.19999c-0.30001,0 -0.5,0.09999 -0.80001,0.19999c-0.19999,0.09999 -0.40001,0.4 -0.6,0.7c-0.2,0.39999 -0.30001,0.89999 -0.4,1.60001c-0.1,0.59999 -0.19999,1.5 -0.19999,2.59999c0,1.1 0.09999,2 0.19999,2.6c0.09999,0.7 0.2,1.2 0.4,1.59999c0.19999,0.40001 0.40001,0.70002 0.6,0.80001c0.30001,0.1 0.5,0.19999 0.80001,0.19999z" id="textToPath-0"/>
   <path fill="white" d="m222.733319,139.833333l0,-2.5c1,-0.89999 1.90001,-1.8 2.80001,-2.60001c0.8,-0.79998 1.5,-1.5 2.1,-2.19999c0.7,-0.7 1.2,-1.4 1.5,-2c0.4,-0.7 0.59999,-1.30001 0.59999,-1.80001c0,-0.79998 -0.19999,-1.29998 -0.59999,-1.69999c-0.40001,-0.30001 -0.90001,-0.5 -1.5,-0.5c-0.5,0 -1,0.1 -1.40001,0.5c-0.5,0.3 -0.89999,0.6 -1.29998,1l-2.40001,-2.3c0.5,-0.5 0.90001,-0.9 1.3,-1.2c0.39999,-0.4 0.89999,-0.6 1.3,-0.9c0.5,-0.2 1,-0.3 1.5,-0.4c0.5,-0.1 1,-0.2 1.59999,-0.2c0.90001,0 1.60001,0.1 2.30001,0.4c0.69999,0.3 1.3,0.6 1.8,1.1c0.5,0.5 0.89999,1 1.2,1.69999c0.3,0.70002 0.40001,1.40001 0.40001,2.20002c0,0.69999 -0.10001,1.29998 -0.40001,2c-0.30001,0.69999 -0.7,1.39999 -1.09999,2.09999c-0.5,0.6 -1,1.3 -1.5,1.90001c-0.60001,0.69999 -1.20002,1.29998 -1.70002,1.89999c0.40001,-0.10001 0.90001,-0.10001 1.40001,-0.2c0.5,0 1,0 1.30001,0l2.79998,0l0,3.7l-12,0zm20.20002,0.3c-1,0 -1.80001,-0.19999 -2.5,-0.5c-0.80001,-0.40001 -1.40001,-1 -2,-1.69999c-0.5,-0.70002 -0.90001,-1.60001 -1.20002,-2.70002c-0.29998,-1.09999 -0.5,-2.29998 -0.5,-3.69999c0,-1.4 0.20002,-2.7 0.5,-3.7c0.30001,-1.10001 0.70002,-2 1.20002,-2.7c0.59999,-0.7 1.19999,-1.2 2,-1.6c0.69999,-0.3 1.5,-0.5 2.5,-0.5c0.89999,0 1.69999,0.2 2.39999,0.5c0.8,0.4 1.39999,0.9 2,1.6c0.5,0.7 1,1.59999 1.3,2.7c0.2,1 0.4,2.3 0.4,3.7c0,1.40001 -0.2,2.6 -0.4,3.69999c-0.3,1.10001 -0.8,2 -1.3,2.70002c-0.60001,0.69999 -1.2,1.29998 -2,1.69999c-0.7,0.30001 -1.5,0.5 -2.39999,0.5zm0,-3.40001c0.19999,0 0.5,-0.09999 0.69999,-0.19999c0.2,-0.09999 0.4,-0.4 0.59999,-0.80001c0.20002,-0.39999 0.30001,-0.89999 0.40001,-1.59999c0.09999,-0.6 0.2,-1.5 0.2,-2.6c0,-1.09999 -0.10001,-2 -0.2,-2.59999c-0.1,-0.70002 -0.19999,-1.20002 -0.40001,-1.60001c-0.19999,-0.3 -0.39999,-0.60001 -0.59999,-0.7c-0.19999,-0.1 -0.5,-0.19999 -0.69999,-0.19999c-0.30001,0 -0.5,0.09999 -0.80001,0.19999c-0.19999,0.09999 -0.40001,0.4 -0.6,0.7c-0.2,0.39999 -0.30001,0.89999 -0.4,1.60001c-0.1,0.59999 -0.19999,1.5 -0.19999,2.59999c0,1.1 0.09999,2 0.19999,2.6c0.09999,0.7 0.2,1.2 0.4,1.59999c0.19999,0.40001 0.40001,0.70002 0.6,0.80001c0.30001,0.1 0.5,0.19999 0.80001,0.19999z" id="svg_3"/>
   <path fill="white" d="m194.73332,140l0,-2.5c1,-0.89999 1.90001,-1.8 2.80001,-2.60001c0.8,-0.79998 1.5,-1.5 2.1,-2.19999c0.7,-0.7 1.2,-1.4 1.5,-2c0.4,-0.7 0.59999,-1.30001 0.59999,-1.80001c0,-0.79998 -0.19999,-1.29998 -0.59999,-1.69999c-0.40001,-0.30001 -0.90001,-0.5 -1.5,-0.5c-0.5,0 -1,0.1 -1.40001,0.5c-0.5,0.3 -0.89999,0.6 -1.29998,1l-2.40001,-2.3c0.5,-0.5 0.90001,-0.9 1.3,-1.2c0.39999,-0.4 0.89999,-0.6 1.3,-0.9c0.5,-0.2 1,-0.3 1.5,-0.4c0.5,-0.1 1,-0.2 1.59999,-0.2c0.90001,0 1.60001,0.1 2.30001,0.4c0.69999,0.3 1.3,0.6 1.8,1.1c0.5,0.5 0.89999,1 1.2,1.69999c0.3,0.70002 0.40001,1.40001 0.40001,2.20002c0,0.69999 -0.10001,1.29998 -0.40001,2c-0.30001,0.69999 -0.7,1.39999 -1.09999,2.09999c-0.5,0.6 -1,1.3 -1.5,1.90001c-0.60001,0.69999 -1.20002,1.29998 -1.70002,1.89999c0.40001,-0.10001 0.90001,-0.10001 1.40001,-0.2c0.5,0 1,0 1.30001,0l2.79998,0l0,3.7l-12,0zm20.20002,0.3c-1,0 -1.80001,-0.19999 -2.5,-0.5c-0.80001,-0.40001 -1.40001,-1 -2,-1.69999c-0.5,-0.70002 -0.90001,-1.60001 -1.20002,-2.70002c-0.29998,-1.09999 -0.5,-2.29998 -0.5,-3.69999c0,-1.4 0.20002,-2.7 0.5,-3.7c0.30001,-1.10001 0.70002,-2 1.20002,-2.7c0.59999,-0.7 1.19999,-1.2 2,-1.6c0.69999,-0.3 1.5,-0.5 2.5,-0.5c0.89999,0 1.69999,0.2 2.39999,0.5c0.8,0.4 1.39999,0.9 2,1.6c0.5,0.7 1,1.59999 1.3,2.7c0.2,1 0.4,2.3 0.4,3.7c0,1.40001 -0.2,2.6 -0.4,3.69999c-0.3,1.10001 -0.8,2 -1.3,2.70002c-0.60001,0.69999 -1.2,1.29998 -2,1.69999c-0.7,0.30001 -1.5,0.5 -2.39999,0.5zm0,-3.40001c0.19999,0 0.5,-0.09999 0.69999,-0.19999c0.2,-0.09999 0.4,-0.4 0.59999,-0.80001c0.20002,-0.39999 0.30001,-0.89999 0.40001,-1.59999c0.09999,-0.6 0.2,-1.5 0.2,-2.6c0,-1.09999 -0.10001,-2 -0.2,-2.59999c-0.1,-0.70002 -0.19999,-1.20002 -0.40001,-1.60001c-0.19999,-0.3 -0.39999,-0.60001 -0.59999,-0.7c-0.19999,-0.1 -0.5,-0.19999 -0.69999,-0.19999c-0.30001,0 -0.5,0.09999 -0.80001,0.19999c-0.19999,0.09999 -0.40001,0.4 -0.6,0.7c-0.2,0.39999 -0.30001,0.89999 -0.4,1.60001c-0.1,0.59999 -0.19999,1.5 -0.19999,2.59999c0,1.1 0.09999,2 0.19999,2.6c0.09999,0.7 0.2,1.2 0.4,1.59999c0.19999,0.40001 0.40001,0.70002 0.6,0.80001c0.30001,0.1 0.5,0.19999 0.80001,0.19999z" id="svg_4"/>
  </g>
 </g>
</svg>