<?xml version="1.0" encoding="UTF-8"?>
<svg width="302px" height="152px" viewBox="0 0 302 152" version="1.1" xmlns="http://www.w3.org/2000/svg" xmlns:xlink="http://www.w3.org/1999/xlink">
    <title>mascot 2</title>
    <g id="Page-1" stroke="none" stroke-width="1" fill="none" fill-rule="evenodd">
        <g id="mascot" transform="translate(-1.000000, -1.000000)">
            <g id="background">
                <rect id="canvas_background" x="0" y="0" width="582" height="402"></rect>
            </g>
            <g id="Layer-1" transform="translate(1.000000, 1.000000)" fill-rule="nonzero">
                <g id="submarine">
                    <rect id="Rectangle" fill="#F8C86C" x="0" y="28" width="302" height="100" rx="50"></rect>
                    <path d="M58.68,95.72 C56.19999,95.72 53.65001,95.27 51.03,94.37 C48.40999,93.47 46.04001,92.06001 43.92,90.14 L49.8,83.06 C51.20001,84.18001 52.70999,85.09 54.33,85.79 C55.95001,86.49 57.47999,86.84 58.92,86.84 C60.48001,86.84 61.61,86.6 62.31,86.12 C63.01,85.64 63.36,84.96 63.36,84.08 C63.36,83.6 63.24,83.2 63,82.88 C62.76,82.56 62.41,82.26 61.95,81.98 C61.49,81.7 60.94,81.43 60.3,81.17 C59.66,80.91 58.92,80.62 58.08,80.3 L53.22,78.26 C52.17999,77.86 51.18,77.33 50.22,76.67 C49.26,76.01 48.42,75.23 47.7,74.33 C46.98,73.43 46.41,72.40001 45.99,71.24 C45.57,70.07999 45.36,68.80001 45.36,67.4 C45.36,65.71999 45.72,64.15001 46.44,62.69 C47.16,61.22999 48.15999,59.95001 49.44,58.85 C50.72001,57.74999 52.24999,56.88 54.03,56.24 C55.81001,55.6 57.75999,55.28 59.88,55.28 C62.12001,55.28 64.38999,55.7 66.69,56.54 C68.99001,57.38 71.03999,58.69999 72.84,60.5 L67.68,66.98 C66.35999,66.06 65.09001,65.36 63.87,64.88 C62.64999,64.4 61.32001,64.16 59.88,64.16 C58.59999,64.16 57.6,64.38 56.88,64.82 C56.16,65.26 55.8,65.92 55.8,66.8 C55.8,67.72 56.30999,68.43 57.33,68.93 C58.35001,69.43 59.75999,70.02 61.56,70.7 L66.3,72.56 C68.74001,73.52 70.61999,74.85999 71.94,76.58 C73.26001,78.30001 73.92,80.51999 73.92,83.24 C73.92,84.88001 73.58,86.45999 72.9,87.98 C72.22,89.50001 71.23001,90.82999 69.93,91.97 C68.62999,93.11001 67.04001,94.02 65.16,94.7 C63.27999,95.38 61.12001,95.72 58.68,95.72 L58.68,95.72 Z M100.24,76.04 L99.58,78.74 L106.78,78.74 L106.12,76.04 C105.64,74.15999 105.16,72.12001 104.68,69.92 C104.2,67.71999 103.72,65.64001 103.24,63.68 L103,63.68 C102.56,65.68 102.11,67.76999 101.65,69.95 C101.19,72.13001 100.72,74.15999 100.24,76.04 L100.24,76.04 Z M85.24,95 L97.12,56 L109.6,56 L121.48,95 L110.56,95 L108.64,86.72 L97.72,86.72 L95.8,95 L85.24,95 L85.24,95 Z M150.56,95.72 C145.07997,95.72 141.01001,94.13002 138.35,90.95 C135.68999,87.76998 134.36,82.84003 134.36,76.16 L134.36,56 L144.68,56 L144.68,77.36 C144.68,80.84002 145.14999,83.28999 146.09,84.71 C147.03,86.13001 148.51999,86.84 150.56,86.84 C152.60001,86.84 154.10999,86.13001 155.09,84.71 C156.07001,83.28999 156.56,80.84002 156.56,77.36 L156.56,56 L166.52,56 L166.52,76.16 C166.52,82.84003 165.22001,87.76998 162.62,90.95 C160.01999,94.13002 156.00003,95.72 150.56,95.72 L150.56,95.72 Z M190.92,95 L179.4,56 L190.32,56 L194.4,73.04 C194.96,75.12001 195.44,77.16999 195.84,79.19 C196.24,81.21001 196.72,83.27999 197.28,85.4 L197.52,85.4 C198.08,83.27999 198.57,81.21001 198.99,79.19 C199.41,77.16999 199.88,75.12001 200.4,73.04 L204.36,56 L214.92,56 L203.4,95 L190.92,95 Z M244.96,95.72 C242.47999,95.72 240.11001,95.31 237.85,94.49 C235.58999,93.67 233.61001,92.43001 231.91,90.77 C230.20999,89.10999 228.86,87.03001 227.86,84.53 C226.85999,82.02999 226.36,79.12002 226.36,75.8 C226.36,72.51998 226.88,69.61001 227.92,67.07 C228.96,64.52999 230.34999,62.39001 232.09,60.65 C233.83001,58.90999 235.82999,57.58 238.09,56.66 C240.35001,55.74 242.71999,55.28 245.2,55.28 C247.80001,55.28 250.11999,55.78999 252.16,56.81 C254.20001,57.83001 255.91999,59.03999 257.32,60.44 L251.92,67.04 C250.95999,66.2 249.97,65.51 248.95,64.97 C247.92999,64.43 246.76001,64.16 245.44,64.16 C244.27999,64.16 243.19001,64.42 242.17,64.94 C241.14999,65.46 240.25,66.2 239.47,67.16 C238.69,68.12 238.07,69.29999 237.61,70.7 C237.15,72.10001 236.92,73.67999 236.92,75.44 C236.92,79.12002 237.68999,81.93999 239.23,83.9 C240.77001,85.86001 242.79999,86.84 245.32,86.84 C246.84001,86.84 248.18999,86.51 249.37,85.85 C250.55001,85.19 251.56,84.4 252.4,83.48 L257.8,89.96 C256.11999,91.88001 254.19001,93.32 252.01,94.28 C249.82999,95.24 247.48001,95.72 244.96,95.72 Z" id="SAUVC-text" fill="#1C455D"></path>
                    <path d="M302,77.979 C302,64.508 296.663,52.291 288,43.3 L288,112.658 C296.663,103.667 302,91.45 302,77.979" id="Fill-1" fill="#F59A63"></path>
                    <path d="M0,77.979 C0,64.508 5.337,52.291 14,43.3 L14,112.658 C5.337,103.667 0,91.45 0,77.979" id="Fill-1-Copy" fill="#F59A63"></path>
                    <path d="M111,0 L191,0 L191,0 C196.52285,0 201,4.47715 201,10 L201,28 L101,28 L101,10 L101,10 C101,4.47715 105.47715,0 111,0 Z" id="Rectangle-2" fill="#F59A63"></path>
                    <rect id="Rectangle-4" fill="#1C455D" x="268" y="112" width="20" height="40"></rect>
                    <path d="M194,112 L244.34676,112 L244.34676,112 C251.23812,112 257.91937,114.37256 263.26732,118.71884 L279.60938,132 L263.26732,145.28116 L263.26732,145.28116 C257.91937,149.62743 251.23812,152 244.34676,152 L194,152 L194,152 C182.95431,152 174,143.04569 174,132 L174,132 L174,132 C174,120.95431 182.95431,112 194,112 L194,112 Z" id="Rectangle-3" fill="#1C455D"></path>
                </g>
                <g id="year-text" transform="translate(194.533330, 123.200000)" fill="#FFFFFF">
                    <path d="M42.89998,16.8 L42.89998,14.3 C43.89998,13.40001 44.79999,12.5 45.69999,11.69999 C46.49999,10.90001 47.19999,10.19999 47.79999,9.5 C48.49999,8.8 48.99999,8.1 49.29999,7.5 C49.69999,6.8 49.89998,6.19999 49.89998,5.69999 C49.89998,4.90001 49.69999,4.40001 49.29999,4 C48.89998,3.69999 48.39998,3.5 47.79999,3.5 C47.29999,3.5 46.79999,3.6 46.39998,4 C45.89998,4.3 45.49999,4.6 45.1,5 L42.69999,2.7 C43.19999,2.2 43.6,1.8 43.99999,1.5 C44.39998,1.1 44.89998,0.9 45.29999,0.6 C45.79999,0.4 46.29999,0.3 46.79999,0.2 C47.29999,0.1 47.79999,2.84217094e-14 48.39998,2.84217094e-14 C49.29999,2.84217094e-14 49.99999,0.1 50.69999,0.4 C51.39998,0.7 51.99999,1 52.49999,1.5 C52.99999,2 53.39998,2.5 53.69999,3.19999 C53.99999,3.90001 54.1,4.6 54.1,5.40001 C54.1,6.1 53.99999,6.69999 53.69999,7.40001 C53.39998,8.1 52.99999,8.8 52.6,9.5 C52.1,10.1 51.6,10.8 51.1,11.40001 C50.49999,12.1 49.89998,12.69999 49.39998,13.3 C49.79999,13.19999 50.29999,13.19999 50.79999,13.1 C51.29999,13.1 51.79999,13.1 52.1,13.1 L54.89998,13.1 L54.89998,16.8 L42.89998,16.8 L42.89998,16.8 Z" id="2"></path>
                    <path d="M28.69999,16.8 L28.69999,14.3 C29.69999,13.40001 30.6,12.5 31.5,11.69999 C32.3,10.90001 33,10.19999 33.6,9.5 C34.3,8.8 34.8,8.1 35.1,7.5 C35.5,6.8 35.69999,6.19999 35.69999,5.69999 C35.69999,4.90001 35.5,4.40001 35.1,4 C34.69999,3.69999 34.19999,3.5 33.6,3.5 C33.1,3.5 32.6,3.6 32.19999,4 C31.69999,4.3 31.3,4.6 30.90001,5 L28.5,2.7 C29,2.2 29.40001,1.8 29.8,1.5 C30.19999,1.1 30.69999,0.9 31.1,0.6 C31.6,0.4 32.1,0.3 32.6,0.2 C33.1,0.1 33.6,2.84217094e-14 34.19999,2.84217094e-14 C35.1,2.84217094e-14 35.8,0.1 36.5,0.4 C37.19999,0.7 37.8,1 38.3,1.5 C38.8,2 39.19999,2.5 39.5,3.19999 C39.8,3.90001 39.90001,4.6 39.90001,5.40001 C39.90001,6.1 39.8,6.69999 39.5,7.40001 C39.19999,8.1 38.8,8.8 38.40001,9.5 C37.90001,10.1 37.40001,10.8 36.90001,11.40001 C36.3,12.1 35.69999,12.69999 35.19999,13.3 C35.6,13.19999 36.1,13.19999 36.6,13.1 C37.1,13.1 37.6,13.1 37.90001,13.1 L40.69999,13.1 L40.69999,16.8 L28.69999,16.8 L28.69999,16.8 Z" id="2"></path>
                    <path d="M20.40001,0 C21.3,0 22.1,0.2 22.8,0.5 C23.6,0.9 24.19999,1.4 24.8,2.1 C25.3,2.8 25.8,3.69999 26.1,4.8 C26.3,5.8 26.5,7.1 26.5,8.5 C26.5,9.90001 26.3,11.1 26.1,12.19999 C25.8,13.3 25.3,14.19999 24.8,14.90001 C24.19999,15.6 23.6,16.19999 22.8,16.6 C22.1,16.90001 21.3,17.1 20.40001,17.1 C19.40001,17.1 18.6,16.90001 17.90001,16.6 C17.1,16.19999 16.5,15.6 15.90001,14.90001 C15.40001,14.19999 15,13.3 14.69999,12.19999 C14.40001,11.1 14.19999,9.90001 14.19999,8.5 C14.19999,7.1 14.40001,5.8 14.69999,4.8 C15,3.69999 15.40001,2.8 15.90001,2.1 C16.5,1.4 17.1,0.9 17.90001,0.5 C18.6,0.2 19.40001,0 20.40001,0 Z M20.40001,3.40001 C20.1,3.40001 19.90001,3.5 19.6,3.6 C19.40001,3.69999 19.19999,4 19,4.3 C18.8,4.69999 18.69999,5.19999 18.6,5.90001 C18.5,6.5 18.40001,7.40001 18.40001,8.5 C18.40001,9.6 18.5,10.5 18.6,11.1 C18.69999,11.8 18.8,12.3 19,12.69999 C19.19999,13.1 19.40001,13.40001 19.6,13.5 C19.90001,13.6 20.1,13.69999 20.40001,13.69999 C20.6,13.69999 20.90001,13.6 21.1,13.5 C21.3,13.40001 21.5,13.1 21.69999,12.69999 C21.90001,12.3 22,11.8 22.1,11.1 C22.19999,10.5 22.3,9.6 22.3,8.5 C22.3,7.40001 22.19999,6.5 22.1,5.90001 C22,5.19999 21.90001,4.69999 21.69999,4.3 C21.5,4 21.3,3.69999 21.1,3.6 C20.90001,3.5 20.6,3.40001 20.40001,3.40001 Z" id="0"></path>
                    <path d="M0.19999,16.8 L0.19999,14.3 C1.19999,13.40001 2.1,12.5 3,11.69999 C3.8,10.90001 4.5,10.19999 5.1,9.5 C5.8,8.8 6.3,8.1 6.6,7.5 C7,6.8 7.19999,6.19999 7.19999,5.69999 C7.19999,4.90001 7,4.40001 6.6,4 C6.19999,3.69999 5.69999,3.5 5.1,3.5 C4.6,3.5 4.1,3.6 3.69999,4 C3.19999,4.3 2.8,4.6 2.40001,5 L0,2.7 C0.5,2.2 0.90001,1.8 1.3,1.5 C1.69999,1.1 2.19999,0.9 2.6,0.6 C3.1,0.4 3.6,0.3 4.1,0.2 C4.6,0.1 5.1,2.84217094e-14 5.69999,2.84217094e-14 C6.6,2.84217094e-14 7.3,0.1 8,0.4 C8.69999,0.7 9.3,1 9.8,1.5 C10.3,2 10.69999,2.5 11,3.19999 C11.3,3.90001 11.40001,4.6 11.40001,5.40001 C11.40001,6.1 11.3,6.69999 11,7.40001 C10.69999,8.1 10.3,8.8 9.90001,9.5 C9.40001,10.1 8.90001,10.8 8.40001,11.40001 C7.8,12.1 7.19999,12.69999 6.69999,13.3 C7.1,13.19999 7.6,13.19999 8.1,13.1 C8.6,13.1 9.1,13.1 9.40001,13.1 L12.19999,13.1 L12.19999,16.8 L0.19999,16.8 L0.19999,16.8 Z" id="2"></path>
                </g>
            </g>
        </g>
    </g>
</svg>